<?xml version="1.0" encoding="UTF-8" standalone="no"?>
<svg
   width="200"
   height="200"
   viewBox="0 0 200 200"
   version="1.1"
   id="svg8"
   inkscape:version="1.4 (e7c3feb1, 2024-10-09)"
   sodipodi:docname="dekopon-blink.svg"
   xmlns:inkscape="http://www.inkscape.org/namespaces/inkscape"
   xmlns:sodipodi="http://sodipodi.sourceforge.net/DTD/sodipodi-0.dtd"
   xmlns="http://www.w3.org/2000/svg"
   xmlns:svg="http://www.w3.org/2000/svg"
   xmlns:rdf="http://www.w3.org/1999/02/22-rdf-syntax-ns#"
   xmlns:cc="http://creativecommons.org/ns#"
   xmlns:dc="http://purl.org/dc/elements/1.1/">
  <defs
     id="defs2" />
  <sodipodi:namedview
     id="base"
     pagecolor="#ffffff"
     bordercolor="#666666"
     borderopacity="1.0"
     inkscape:pageopacity="0.0"
     inkscape:pageshadow="2"
     inkscape:zoom="2.4349989"
     inkscape:cx="3.9014391"
     inkscape:cy="114.98979"
     inkscape:document-units="px"
     inkscape:current-layer="layer5"
     inkscape:document-rotation="0"
     showgrid="false"
     units="px"
     inkscape:pagecheckerboard="true"
     inkscape:snap-global="false"
     inkscape:window-width="1440"
     inkscape:window-height="781"
     inkscape:window-x="162"
     inkscape:window-y="169"
     inkscape:window-maximized="0"
     showguides="true"
     inkscape:guide-bbox="true"
     inkscape:showpageshadow="2"
     inkscape:deskcolor="#d1d1d1">
    <sodipodi:guide
       position="-71.23249,150.2182"
       orientation="0,-1"
       id="guide1056"
       inkscape:locked="false" />
    <sodipodi:guide
       position="5.6662208,50.249879"
       orientation="0,-1"
       id="guide1058"
       inkscape:locked="false" />
    <sodipodi:guide
       position="50.186527,174.09728"
       orientation="1,0"
       id="guide1060"
       inkscape:locked="false" />
    <sodipodi:guide
       position="150.15485,150.2182"
       orientation="1,0"
       id="guide1062"
       inkscape:locked="false" />
  </sodipodi:namedview>
  <metadata
     id="metadata5">
    <rdf:RDF>
      <cc:Work
         rdf:about="">
        <dc:format>image/svg+xml</dc:format>
        <dc:type
           rdf:resource="http://purl.org/dc/dcmitype/StillImage" />
      </cc:Work>
    </rdf:RDF>
  </metadata>
  <g
     inkscape:label="Fruit"
     inkscape:groupmode="layer"
     id="layer1" />
  <g
     inkscape:groupmode="layer"
     id="layer4"
     inkscape:label="Fruit2"
     style="display:inline">
    <path
       id="path1854"
       style="fill:#f4840d;fill-opacity:1;stroke:#d87409;stroke-width:8;stroke-linecap:round;stroke-linejoin:round;stroke-miterlimit:4;stroke-dasharray:none;stroke-opacity:1;stop-color:#000000"
       d="M 100.26172 45.402344 A 10.168081 8.2763453 0 0 0 93.976562 47.173828 A 10.168081 8.2763453 0 0 0 91.039062 46.820312 A 10.168081 8.2763453 0 0 0 80.871094 55.097656 A 10.168081 8.2763453 0 0 0 81.472656 57.896484 A 46 46 0 0 0 54 100 A 46 46 0 0 0 100 146 A 46 46 0 0 0 146 100 A 46 46 0 0 0 118.17188 57.742188 A 10.168081 8.2763453 0 0 0 118.70703 55.097656 A 10.168081 8.2763453 0 0 0 108.53906 46.820312 A 10.168081 8.2763453 0 0 0 106.30664 47.023438 A 10.168081 8.2763453 0 0 0 100.26172 45.402344 z " />
  </g>
  <g
     inkscape:groupmode="layer"
     id="layer2"
     inkscape:label="Face Normal"
     style="display:inline;mix-blend-mode:normal">
    <circle
       style="font-variation-settings:normal;display:none;mix-blend-mode:normal;vector-effect:none;fill:#632828;fill-opacity:1;stroke:none;stroke-width:8;stroke-linecap:round;stroke-linejoin:round;stroke-miterlimit:4;stroke-dasharray:none;stroke-dashoffset:0;stroke-opacity:1;stop-color:#000000"
       id="path1014"
       cx="84.497581"
       cy="98.970528"
       r="7.5175285" />
    <circle
       style="display:none;mix-blend-mode:normal;fill:#d7d7d7;fill-opacity:1;stroke:none;stroke-width:10.103;stroke-miterlimit:2.8;stroke-dashoffset:2.9174"
       id="path1"
       cx="88.065216"
       cy="95.903267"
       r="1.8843461" />
    <circle
       style="font-variation-settings:normal;display:none;mix-blend-mode:normal;vector-effect:none;fill:#632828;fill-opacity:1;stroke:none;stroke-width:8;stroke-linecap:round;stroke-linejoin:round;stroke-miterlimit:4;stroke-dasharray:none;stroke-dashoffset:0;stroke-opacity:1;stop-color:#000000"
       id="path1014-2"
       cx="115.49758"
       cy="98.970474"
       r="7.5175285" />
    <circle
       style="display:none;mix-blend-mode:normal;fill:#d7d7d7;fill-opacity:1;stroke:none;stroke-width:10.103;stroke-miterlimit:2.8;stroke-dashoffset:2.9174"
       id="path1-4"
       cx="119.06522"
       cy="95.903221"
       r="1.8843461" />
    <path
       style="fill:#c36808;fill-opacity:1;stroke:none;stroke-width:5;stroke-miterlimit:2.8;stroke-dashoffset:2.9174"
       d="m 90.093927,109.24776 c 10.404553,7.80341 17.971493,0.23646 17.971493,0.23646 0,0 -6.62107,24.59257 -17.971493,-0.23646 z"
       id="path2"
       inkscape:transform-center-x="2.128203"
       inkscape:transform-center-y="7.09401" />
    <path
       style="fill:#f6962f;fill-opacity:1;stroke:none;stroke-width:5;stroke-miterlimit:2.8;stroke-dashoffset:2.9174"
       id="path3"
       sodipodi:type="arc"
       sodipodi:cx="66.3797"
       sodipodi:cy="-100.9309"
       sodipodi:rx="3.8295982"
       sodipodi:ry="2.8721986"
       sodipodi:start="0"
       sodipodi:end="3.1676202"
       sodipodi:arc-type="slice"
       d="m 70.209298,-100.9309 a 3.8295982,2.8721986 0 0 1 -1.943645,2.499762 3.8295982,2.8721986 0 0 1 -3.858009,-0.03766 3.8295982,2.8721986 0 0 1 -1.856245,-2.536854 l 3.828301,0.0748 z"
       transform="scale(1,-1)" />
    <path
       style="display:inline;mix-blend-mode:normal;fill:#f6962f;fill-opacity:1;stroke:none;stroke-width:4.50235;stroke-miterlimit:2.8;stroke-dashoffset:2.9174"
       id="path3-6"
       sodipodi:type="arc"
       sodipodi:cx="72.128311"
       sodipodi:cy="-113.75662"
       sodipodi:rx="3.1052117"
       sodipodi:ry="2.8721986"
       sodipodi:start="0"
       sodipodi:end="3.1676202"
       sodipodi:arc-type="slice"
       d="m 75.233523,-113.75662 a 3.1052117,2.8721986 0 0 1 -1.575995,2.49976 3.1052117,2.8721986 0 0 1 -3.128249,-0.0377 3.1052117,2.8721986 0 0 1 -1.505128,-2.53685 l 3.10416,0.0748 z"
       transform="scale(1,-1)" />
    <path
       style="display:inline;mix-blend-mode:normal;fill:#f6962f;fill-opacity:1;stroke:none;stroke-width:5;stroke-miterlimit:2.8;stroke-dashoffset:2.9174"
       id="path3-6-0"
       sodipodi:type="arc"
       sodipodi:cx="81.542473"
       sodipodi:cy="-124.30447"
       sodipodi:rx="3.8295982"
       sodipodi:ry="2.8721986"
       sodipodi:start="0"
       sodipodi:end="3.1676202"
       sodipodi:arc-type="slice"
       d="m 85.372071,-124.30447 a 3.8295982,2.8721986 0 0 1 -1.943644,2.49977 3.8295982,2.8721986 0 0 1 -3.85801,-0.0377 3.8295982,2.8721986 0 0 1 -1.856245,-2.53685 l 3.828301,0.0747 z"
       transform="scale(1,-1)" />
    <path
       style="display:inline;mix-blend-mode:normal;fill:#f6962f;fill-opacity:1;stroke:none;stroke-width:5;stroke-miterlimit:2.8;stroke-dashoffset:2.9174"
       id="path3-3"
       sodipodi:type="arc"
       sodipodi:cx="84.462196"
       sodipodi:cy="-72.077728"
       sodipodi:rx="3.8295982"
       sodipodi:ry="2.8721986"
       sodipodi:start="0"
       sodipodi:end="3.1676202"
       sodipodi:arc-type="slice"
       d="m 88.291795,-72.077728 a 3.8295982,2.8721986 0 0 1 -1.943645,2.499762 3.8295982,2.8721986 0 0 1 -3.858009,-0.03766 3.8295982,2.8721986 0 0 1 -1.856246,-2.536853 l 3.828301,0.07475 z"
       transform="scale(1,-1)" />
    <path
       style="display:inline;mix-blend-mode:normal;fill:#f6962f;fill-opacity:1;stroke:none;stroke-width:5.99938;stroke-miterlimit:2.8;stroke-dashoffset:2.9174"
       id="path3-6-2"
       sodipodi:type="arc"
       sodipodi:cx="95.072594"
       sodipodi:cy="-85.108665"
       sodipodi:rx="4.5539846"
       sodipodi:ry="3.4773524"
       sodipodi:start="0"
       sodipodi:end="3.1676202"
       sodipodi:arc-type="slice"
       d="m 99.626578,-85.108665 a 4.5539846,3.4773524 0 0 1 -2.311294,3.026446 4.5539846,3.4773524 0 0 1 -4.587769,-0.04559 4.5539846,3.4773524 0 0 1 -2.207364,-3.071351 l 4.552443,0.0905 z"
       transform="scale(1,-1)" />
    <path
       style="display:inline;mix-blend-mode:normal;fill:#f6962f;fill-opacity:1;stroke:none;stroke-width:5;stroke-miterlimit:2.8;stroke-dashoffset:2.9174"
       id="path3-6-0-6"
       sodipodi:type="arc"
       sodipodi:cx="99.60453"
       sodipodi:cy="-98.255569"
       sodipodi:rx="3.8295982"
       sodipodi:ry="2.8721986"
       sodipodi:start="0"
       sodipodi:end="3.1676202"
       sodipodi:arc-type="slice"
       d="m 103.43413,-98.255569 a 3.8295982,2.8721986 0 0 1 -1.94365,2.499762 3.8295982,2.8721986 0 0 1 -3.858005,-0.03766 3.8295982,2.8721986 0 0 1 -1.856246,-2.536853 l 3.828301,0.07475 z"
       transform="scale(1,-1)" />
    <path
       style="display:inline;mix-blend-mode:normal;fill:#f6962f;fill-opacity:1;stroke:none;stroke-width:5;stroke-miterlimit:2.8;stroke-dashoffset:2.9174"
       id="path3-6-0-6-8"
       sodipodi:type="arc"
       sodipodi:cx="103.07843"
       sodipodi:cy="-72.221504"
       sodipodi:rx="3.8295982"
       sodipodi:ry="2.8721986"
       sodipodi:start="0"
       sodipodi:end="3.1676202"
       sodipodi:arc-type="slice"
       d="m 106.90803,-72.221504 a 3.8295982,2.8721986 0 0 1 -1.94365,2.499762 3.8295982,2.8721986 0 0 1 -3.85801,-0.03766 3.8295982,2.8721986 0 0 1 -1.856241,-2.536853 l 3.828301,0.07475 z"
       transform="scale(1,-1)" />
    <path
       style="display:inline;mix-blend-mode:normal;fill:#f6962f;fill-opacity:1;stroke:none;stroke-width:5.6589;stroke-miterlimit:2.8;stroke-dashoffset:2.9174"
       id="path3-37"
       sodipodi:type="arc"
       sodipodi:cx="74.90567"
       sodipodi:cy="-84.563789"
       sodipodi:rx="3.8295982"
       sodipodi:ry="3.6790702"
       sodipodi:start="0"
       sodipodi:end="3.1676202"
       sodipodi:arc-type="slice"
       d="m 78.735268,-84.563789 a 3.8295982,3.6790702 0 0 1 -1.943644,3.202007 3.8295982,3.6790702 0 0 1 -3.858009,-0.04824 3.8295982,3.6790702 0 0 1 -1.856246,-3.249518 l 3.828301,0.09575 z"
       transform="scale(1,-1)" />
    <path
       style="display:inline;mix-blend-mode:normal;fill:#f6962f;fill-opacity:1;stroke:none;stroke-width:6.57392;stroke-miterlimit:2.8;stroke-dashoffset:2.9174"
       id="path3-6-0-8"
       sodipodi:type="arc"
       sodipodi:cx="117.75089"
       sodipodi:cy="-125.11663"
       sodipodi:rx="4.6574683"
       sodipodi:ry="4.0825062"
       sodipodi:start="0"
       sodipodi:end="3.1676202"
       sodipodi:arc-type="slice"
       d="m 122.40836,-125.11663 a 4.6574683,4.0825062 0 0 1 -2.36381,3.55313 4.6574683,4.0825062 0 0 1 -4.69203,-0.0535 4.6574683,4.0825062 0 0 1 -2.25752,-3.60585 l 4.65589,0.10625 z"
       transform="scale(1,-1)" />
    <path
       style="display:inline;mix-blend-mode:normal;fill:#f6962f;fill-opacity:1;stroke:none;stroke-width:5;stroke-miterlimit:2.8;stroke-dashoffset:2.9174"
       id="path3-35"
       sodipodi:type="arc"
       sodipodi:cx="91.125458"
       sodipodi:cy="-135.08691"
       sodipodi:rx="3.8295982"
       sodipodi:ry="2.8721986"
       sodipodi:start="0"
       sodipodi:end="3.1676202"
       sodipodi:arc-type="slice"
       d="m 94.955056,-135.08691 a 3.8295982,2.8721986 0 0 1 -1.943645,2.49976 3.8295982,2.8721986 0 0 1 -3.858009,-0.0377 3.8295982,2.8721986 0 0 1 -1.856245,-2.53685 l 3.828301,0.0748 z"
       transform="scale(1,-1)" />
    <path
       style="display:inline;mix-blend-mode:normal;fill:#f6962f;fill-opacity:1;stroke:none;stroke-width:5;stroke-miterlimit:2.8;stroke-dashoffset:2.9174"
       id="path3-38"
       sodipodi:type="arc"
       sodipodi:cx="113.36871"
       sodipodi:cy="-85.027725"
       sodipodi:rx="3.8295982"
       sodipodi:ry="2.8721986"
       sodipodi:start="0"
       sodipodi:end="3.1676202"
       sodipodi:arc-type="slice"
       d="m 117.19831,-85.027725 a 3.8295982,2.8721986 0 0 1 -1.94364,2.499762 3.8295982,2.8721986 0 0 1 -3.85801,-0.03766 3.8295982,2.8721986 0 0 1 -1.85625,-2.536853 l 3.8283,0.07475 z"
       transform="scale(1,-1)" />
    <path
       style="display:inline;mix-blend-mode:normal;fill:#f6962f;fill-opacity:1;stroke:none;stroke-width:5;stroke-miterlimit:2.8;stroke-dashoffset:2.9174"
       id="path3-38-8"
       sodipodi:type="arc"
       sodipodi:cx="124.34908"
       sodipodi:cy="-75.658646"
       sodipodi:rx="3.8295982"
       sodipodi:ry="2.8721986"
       sodipodi:start="0"
       sodipodi:end="3.1676202"
       sodipodi:arc-type="slice"
       d="m 128.17868,-75.658646 a 3.8295982,2.8721986 0 0 1 -1.94364,2.499763 3.8295982,2.8721986 0 0 1 -3.85801,-0.03766 3.8295982,2.8721986 0 0 1 -1.85625,-2.536852 l 3.8283,0.07475 z"
       transform="scale(1,-1)" />
    <path
       style="display:inline;mix-blend-mode:normal;fill:#f6962f;fill-opacity:1;stroke:none;stroke-width:5;stroke-miterlimit:2.8;stroke-dashoffset:2.9174"
       id="path3-38-3"
       sodipodi:type="arc"
       sodipodi:cx="131.88298"
       sodipodi:cy="-93.032364"
       sodipodi:rx="3.8295982"
       sodipodi:ry="2.8721986"
       sodipodi:start="0"
       sodipodi:end="3.1676202"
       sodipodi:arc-type="slice"
       d="m 135.71258,-93.032364 a 3.8295982,2.8721986 0 0 1 -1.94365,2.499763 3.8295982,2.8721986 0 0 1 -3.85801,-0.03766 3.8295982,2.8721986 0 0 1 -1.85624,-2.536853 l 3.8283,0.07475 z"
       transform="scale(1,-1)" />
    <path
       style="display:inline;mix-blend-mode:normal;fill:#f6962f;fill-opacity:1;stroke:none;stroke-width:5;stroke-miterlimit:2.8;stroke-dashoffset:2.9174"
       id="path3-6-0-5"
       sodipodi:type="arc"
       sodipodi:cx="128.48512"
       sodipodi:cy="-110.85528"
       sodipodi:rx="3.8295982"
       sodipodi:ry="2.8721986"
       sodipodi:start="0"
       sodipodi:end="3.1676202"
       sodipodi:arc-type="slice"
       d="m 132.31472,-110.85528 a 3.8295982,2.8721986 0 0 1 -1.94364,2.49976 3.8295982,2.8721986 0 0 1 -3.85801,-0.0376 3.8295982,2.8721986 0 0 1 -1.85625,-2.53686 l 3.8283,0.0748 z"
       transform="scale(1,-1)" />
    <path
       style="display:inline;mix-blend-mode:normal;fill:#f6962f;fill-opacity:1;stroke:none;stroke-width:5;stroke-miterlimit:2.8;stroke-dashoffset:2.9174"
       id="path3-6-0-4"
       sodipodi:type="arc"
       sodipodi:cx="109.90894"
       sodipodi:cy="-134.35281"
       sodipodi:rx="3.8295982"
       sodipodi:ry="2.8721986"
       sodipodi:start="0"
       sodipodi:end="3.1676202"
       sodipodi:arc-type="slice"
       d="m 113.73854,-134.35281 a 3.8295982,2.8721986 0 0 1 -1.94364,2.49976 3.8295982,2.8721986 0 0 1 -3.85801,-0.0377 3.8295982,2.8721986 0 0 1 -1.85625,-2.53685 l 3.8283,0.0747 z"
       transform="scale(1,-1)" />
  </g>
  <g
     inkscape:groupmode="layer"
     id="layer3"
     inkscape:label="Face Danger"
     style="display:none;mix-blend-mode:normal">
    <path
       style="fill:none;stroke:#000000;stroke-width:8;stroke-linecap:round;stroke-linejoin:miter;stroke-miterlimit:4;stroke-dasharray:none;stroke-opacity:1"
       d="m 72.93183,101.60479 10.763322,4.26091"
       id="path930" />
    <path
       style="fill:none;stroke:#000000;stroke-width:8;stroke-linecap:round;stroke-linejoin:miter;stroke-miterlimit:4;stroke-dasharray:none;stroke-opacity:1"
       d="m 127.00366,101.49845 -10.76333,4.2609"
       id="path930-3" />
  </g>
  <g
     inkscape:groupmode="layer"
     id="layer5"
     inkscape:label="Face Blink">
    <path
       style="opacity:1;fill:none;stroke:#c36808;stroke-width:5.045;stroke-linecap:round;stroke-miterlimit:2.8;stroke-dashoffset:2.9174;stroke-opacity:1"
       id="path4"
       sodipodi:type="arc"
       sodipodi:cx="84.18895"
       sodipodi:cy="98.973351"
       sodipodi:rx="5.7494893"
       sodipodi:ry="5.3388114"
       sodipodi:start="0"
       sodipodi:end="3.1481368"
       sodipodi:open="true"
       sodipodi:arc-type="arc"
       d="m 89.938439,98.973351 a 5.7494893,5.3388114 0 0 1 -2.885613,4.629359 5.7494893,5.3388114 0 0 1 -5.760317,-0.0175 5.7494893,5.3388114 0 0 1 -2.852926,-4.646797" />
    <path
       style="fill:none;stroke:#c36808;stroke-width:5.045;stroke-linecap:round;stroke-miterlimit:2.8;stroke-dashoffset:2.9174;stroke-opacity:1"
       id="path4-2"
       sodipodi:type="arc"
       sodipodi:cx="115.6991"
       sodipodi:cy="99.146759"
       sodipodi:rx="5.7494893"
       sodipodi:ry="5.3388114"
       sodipodi:start="0"
       sodipodi:end="3.1481368"
       sodipodi:open="true"
       sodipodi:arc-type="arc"
       d="m 121.44859,99.146759 a 5.7494893,5.3388114 0 0 1 -2.88562,4.629361 5.7494893,5.3388114 0 0 1 -5.76031,-0.0175 5.7494893,5.3388114 0 0 1 -2.85293,-4.646799" />
  </g>
</svg>
