<?xml version="1.0" encoding="UTF-8" standalone="no"?>
<svg
   xmlns:dc="http://purl.org/dc/elements/1.1/"
   xmlns:cc="http://creativecommons.org/ns#"
   xmlns:rdf="http://www.w3.org/1999/02/22-rdf-syntax-ns#"
   xmlns:svg="http://www.w3.org/2000/svg"
   xmlns="http://www.w3.org/2000/svg"
   xmlns:sodipodi="http://sodipodi.sourceforge.net/DTD/sodipodi-0.dtd"
   xmlns:inkscape="http://www.inkscape.org/namespaces/inkscape"
   width="200"
   height="200"
   viewBox="0 0 200 200"
   version="1.1"
   id="svg8"
   inkscape:version="1.0.2 (e86c8708, 2021-01-15)"
   sodipodi:docname="grapes.svg">
  <defs
     id="defs2" />
  <sodipodi:namedview
     id="base"
     pagecolor="#ffffff"
     bordercolor="#666666"
     borderopacity="1.0"
     inkscape:pageopacity="0.0"
     inkscape:pageshadow="2"
     inkscape:zoom="1.7062963"
     inkscape:cx="95.466203"
     inkscape:cy="69.155088"
     inkscape:document-units="px"
     inkscape:current-layer="layer1"
     inkscape:document-rotation="0"
     showgrid="false"
     units="px"
     inkscape:pagecheckerboard="true"
     inkscape:snap-global="false"
     inkscape:window-width="1440"
     inkscape:window-height="781"
     inkscape:window-x="0"
     inkscape:window-y="25"
     inkscape:window-maximized="1"
     showguides="true"
     inkscape:guide-bbox="true">
    <sodipodi:guide
       position="-71.23249,150.2182"
       orientation="0,-1"
       id="guide1056" />
    <sodipodi:guide
       position="5.6662208,50.249879"
       orientation="0,-1"
       id="guide1058" />
    <sodipodi:guide
       position="50.186527,174.09728"
       orientation="1,0"
       id="guide1060" />
    <sodipodi:guide
       position="150.15485,150.2182"
       orientation="1,0"
       id="guide1062" />
  </sodipodi:namedview>
  <metadata
     id="metadata5">
    <rdf:RDF>
      <cc:Work
         rdf:about="">
        <dc:format>image/svg+xml</dc:format>
        <dc:type
           rdf:resource="http://purl.org/dc/dcmitype/StillImage" />
        <dc:title></dc:title>
      </cc:Work>
    </rdf:RDF>
  </metadata>
  <g
     inkscape:label="Fruit"
     inkscape:groupmode="layer"
     id="layer1">
    <path
       id="path1595"
       style="fill:#7f33cf;fill-opacity:1;stroke:#4e0093;stroke-width:8;stroke-linecap:round;stroke-linejoin:round;stroke-miterlimit:4;stroke-dasharray:none;stroke-opacity:1;stop-color:#000000"
       d="m 118.96173,54.799105 c -6.33327,0.01608 -11.95736,3.951618 -14.00057,9.797069 -2.13925,-1.105328 -4.52347,-1.683224 -6.944495,-1.683237 -1.941477,-2.29e-4 -3.864115,0.371221 -5.658835,1.093274 -2.401139,-5.176669 -7.68809,-8.502992 -13.514649,-8.502838 -8.191782,-9.7e-5 -14.832559,6.475402 -14.83246,14.463305 1.65e-4,1.79036 0.341227,3.565128 1.005846,5.234075 -6.901851,1.37735 -11.857863,7.298753 -11.858405,14.168323 9.8e-5,7.032463 5.187759,13.045624 12.293263,14.249444 -2.102565,2.56394 -3.248057,5.74908 -3.248204,9.03196 -9.6e-5,7.9879 5.706404,13.53772 13.617902,15.29641 3.381755,-4.4e-4 3.858995,-0.47975 7.147689,-0.88081 0.09797,2.35166 0.168664,3.36308 0.168822,5.70547 1.027603,7.98791 8.135517,12.33435 16.327296,12.33426 8.19104,-9.3e-4 14.83066,-6.47614 14.83058,-14.46332 -1.1e-4,-1.09712 -0.12826,-2.19066 -0.38193,-3.25954 2.2166,1.21176 4.7153,1.84786 7.25647,1.84733 8.19179,9e-5 14.83256,-6.47541 14.83247,-14.46331 -4.2e-4,-4.42111 -2.07455,-8.59921 -5.63049,-11.34202 0.42879,0.0367 0.85903,0.0551 1.28947,0.0553 8.19176,1e-4 14.83255,-6.475398 14.83245,-14.463298 -3.9e-4,-7.562759 -5.97586,-13.848356 -13.70939,-14.420901 0.69138,-1.69744 1.04679,-3.507212 1.04744,-5.333631 1e-4,-7.987901 -6.64068,-14.463398 -14.83246,-14.463305 -0.0125,-1.6e-5 -0.0252,-1.6e-5 -0.0378,0 z"
       sodipodi:nodetypes="cccccccccccccccccccccccscc" />
  </g>
  <g
     inkscape:groupmode="layer"
     id="layer4"
     inkscape:label="Fruit2"
     style="display:inline">
    <path
       style="fill:#51cf33;fill-opacity:1;stroke:#2e9300;stroke-width:5;stroke-linecap:butt;stroke-linejoin:miter;stroke-miterlimit:4;stroke-dasharray:none;stroke-opacity:1"
       d="M 99.145727,66.152172 C 85.598852,66.158072 78.204709,53.743663 81.344634,50.36268 c 1.971812,-2.123189 10.893158,3.890031 12.41937,2.024295 1.058303,-1.293736 -4.713615,-11.587152 0,-13.562768 7.548946,-3.163987 6.412816,7.023954 10.349476,10.323898 2.53806,2.127548 8.39621,-5.571645 12.28138,-1.012147 0.80676,0.946776 -3.37476,4.748189 -3.8638,5.465593 -1.83646,2.693991 8.23043,0.971932 7.17563,4.453445 -1.05075,3.468147 -7.01408,8.091304 -20.560963,8.097176 z"
       id="path1073"
       sodipodi:nodetypes="zsssssssz" />
  </g>
  <g
     inkscape:groupmode="layer"
     id="layer2"
     inkscape:label="Face Normal"
     style="display:inline;mix-blend-mode:normal">
    <circle
       style="fill:#000000;fill-opacity:1;stroke:none;stroke-width:8;stroke-linecap:round;stroke-linejoin:round;stroke-miterlimit:4;stroke-dasharray:none;stroke-opacity:1"
       id="path1014-6"
       cx="117.57325"
       cy="98.084473"
       r="5.6481915" />
    <circle
       style="display:inline;mix-blend-mode:normal;fill:#000000;fill-opacity:1;stroke:none;stroke-width:8;stroke-linecap:round;stroke-linejoin:round;stroke-miterlimit:4;stroke-dasharray:none;stroke-opacity:1"
       id="path1014-6-6"
       cx="80.302307"
       cy="97.87027"
       r="5.6481915" />
  </g>
  <g
     inkscape:groupmode="layer"
     id="layer3"
     inkscape:label="Face Danger"
     style="display:none;mix-blend-mode:normal">
    <path
       style="fill:none;stroke:#000000;stroke-width:8;stroke-linecap:round;stroke-linejoin:miter;stroke-miterlimit:4;stroke-dasharray:none;stroke-opacity:1"
       d="M 72.93183,97.604793 83.695152,101.8657"
       id="path930" />
    <path
       style="fill:none;stroke:#000000;stroke-width:8;stroke-linecap:round;stroke-linejoin:miter;stroke-miterlimit:4;stroke-dasharray:none;stroke-opacity:1"
       d="m 127.00366,97.498445 -10.76333,4.260905"
       id="path930-3" />
  </g>
</svg>
