<?xml version="1.0" encoding="UTF-8"?>
<svg width="200" height="200" version="1.1" viewBox="0 0 200 200" xmlns="http://www.w3.org/2000/svg" xmlns:cc="http://creativecommons.org/ns#" xmlns:dc="http://purl.org/dc/elements/1.1/" xmlns:rdf="http://www.w3.org/1999/02/22-rdf-syntax-ns#">
 <metadata>
  <rdf:RDF>
   <cc:Work rdf:about="">
    <dc:format>image/svg+xml</dc:format>
    <dc:type rdf:resource="http://purl.org/dc/dcmitype/StillImage"/>
    <dc:title/>
   </cc:Work>
  </rdf:RDF>
 </metadata>
 <path d="m118.96 54.799c-6.3333 0.01608-11.957 3.9516-14.001 9.7971-2.1392-1.1053-4.5235-1.6832-6.9445-1.6832-1.9415-2.29e-4 -3.8641 0.37122-5.6588 1.0933-2.4011-5.1767-7.6881-8.503-13.515-8.5028-8.1918-9.7e-5 -14.833 6.4754-14.832 14.463 1.65e-4 1.7904 0.34123 3.5651 1.0058 5.2341-6.9019 1.3774-11.858 7.2988-11.858 14.168 9.8e-5 7.0325 5.1878 13.046 12.293 14.249-2.1026 2.5639-3.2481 5.7491-3.2482 9.032-9.6e-5 7.9879 5.7064 13.538 13.618 15.296 3.3818-4.4e-4 3.859-0.47975 7.1477-0.88081 0.09797 2.3517 0.16866 3.3631 0.16882 5.7055 1.0276 7.9879 8.1355 12.334 16.327 12.334 8.191-9.3e-4 14.831-6.4761 14.831-14.463-1.1e-4 -1.0971-0.12826-2.1907-0.38193-3.2595 2.2166 1.2118 4.7153 1.8479 7.2565 1.8473 8.1918 9e-5 14.833-6.4754 14.832-14.463-4.2e-4 -4.4211-2.0746-8.5992-5.6305-11.342 0.42879 0.0367 0.85903 0.0551 1.2895 0.0553 8.1918 1e-4 14.833-6.4754 14.832-14.463-3.9e-4 -7.5628-5.9759-13.848-13.709-14.421 0.69138-1.6974 1.0468-3.5072 1.0474-5.3336 1e-4 -7.9879-6.6407-14.463-14.832-14.463-0.0125-1.6e-5 -0.0252-1.6e-5 -0.0378 0z" fill="#7f33cf" stop-color="#000000" stroke="#4e0093" stroke-linecap="round" stroke-linejoin="round" stroke-width="8"/>
 <g>
  <path d="m99.146 66.152c-13.547 0.0059-20.941-12.409-17.801-15.789 1.9718-2.1232 10.893 3.89 12.419 2.0243 1.0583-1.2937-4.7136-11.587 0-13.563 7.5489-3.164 6.4128 7.024 10.349 10.324 2.5381 2.1275 8.3962-5.5716 12.281-1.0121 0.80676 0.94678-3.3748 4.7482-3.8638 5.4656-1.8365 2.694 8.2304 0.97193 7.1756 4.4534-1.0508 3.4681-7.0141 8.0913-20.561 8.0972z" fill="#51cf33" stroke="#2e9300" stroke-width="5"/>
 </g>
 <g fill="#000000" style="mix-blend-mode:normal">
  <circle cx="117.57" cy="98.084" r="5.6482"/>
  <circle cx="80.302" cy="97.87" r="5.6482" style="mix-blend-mode:normal"/>
 </g>
 <g display="none" fill="none" stroke="#000000" stroke-linecap="round" stroke-width="8" style="mix-blend-mode:normal">
  <path d="m72.932 97.605 10.763 4.2609"/>
  <path d="m127 97.498-10.763 4.2609"/>
 </g>
</svg>
