<?xml version="1.0" encoding="UTF-8" standalone="no"?>
<svg
   width="200"
   height="200"
   viewBox="0 0 200 200"
   version="1.1"
   id="svg8"
   inkscape:version="1.4 (e7c3feb1, 2024-10-09)"
   sodipodi:docname="peach-blink.svg"
   xmlns:inkscape="http://www.inkscape.org/namespaces/inkscape"
   xmlns:sodipodi="http://sodipodi.sourceforge.net/DTD/sodipodi-0.dtd"
   xmlns:xlink="http://www.w3.org/1999/xlink"
   xmlns="http://www.w3.org/2000/svg"
   xmlns:svg="http://www.w3.org/2000/svg"
   xmlns:rdf="http://www.w3.org/1999/02/22-rdf-syntax-ns#"
   xmlns:cc="http://creativecommons.org/ns#"
   xmlns:dc="http://purl.org/dc/elements/1.1/">
  <defs
     id="defs2">
    <linearGradient
       id="linearGradient1"
       inkscape:collect="always">
      <stop
         style="stop-color:#ff80a5;stop-opacity:1;"
         offset="0.41550902"
         id="stop3" />
      <stop
         style="stop-color:#ffe1ad;stop-opacity:1;"
         offset="0.95397061"
         id="stop6" />
    </linearGradient>
    <linearGradient
       id="linearGradient2"
       inkscape:collect="always">
      <stop
         style="stop-color:#ff2e6b;stop-opacity:1;"
         offset="0"
         id="stop1" />
      <stop
         style="stop-color:#ff80a5;stop-opacity:0;"
         offset="1"
         id="stop2" />
    </linearGradient>
    <linearGradient
       id="linearGradient4"
       inkscape:collect="always">
      <stop
         style="stop-color:#ff2e6b;stop-opacity:1;"
         offset="0"
         id="stop4" />
      <stop
         style="stop-color:#ff80a5;stop-opacity:0;"
         offset="1"
         id="stop5" />
    </linearGradient>
    <radialGradient
       inkscape:collect="always"
       xlink:href="#linearGradient2"
       id="radialGradient5-4"
       cx="72.511467"
       cy="114.60349"
       fx="72.511467"
       fy="114.60349"
       r="10.965148"
       gradientTransform="matrix(1.1821943,0,0,0.98885779,38.319209,0.1113977)"
       gradientUnits="userSpaceOnUse" />
    <radialGradient
       inkscape:collect="always"
       xlink:href="#linearGradient4"
       id="radialGradient12"
       gradientUnits="userSpaceOnUse"
       gradientTransform="matrix(1.1821943,0,0,0.98885779,-9.213389,0.1111367)"
       cx="72.511467"
       cy="114.60349"
       fx="72.511467"
       fy="114.60349"
       r="10.965148" />
    <linearGradient
       inkscape:collect="always"
       xlink:href="#linearGradient1"
       id="linearGradient9"
       x1="100"
       y1="50.499981"
       x2="100.00001"
       y2="149.49998"
       gradientUnits="userSpaceOnUse" />
  </defs>
  <sodipodi:namedview
     id="base"
     pagecolor="#ffffff"
     bordercolor="#666666"
     borderopacity="1.0"
     inkscape:pageopacity="0.0"
     inkscape:pageshadow="2"
     inkscape:zoom="4.8108107"
     inkscape:cx="115.4691"
     inkscape:cy="98.632025"
     inkscape:document-units="px"
     inkscape:current-layer="layer3"
     inkscape:document-rotation="0"
     showgrid="false"
     units="px"
     inkscape:pagecheckerboard="true"
     inkscape:snap-global="false"
     inkscape:window-width="1448"
     inkscape:window-height="830"
     inkscape:window-x="193"
     inkscape:window-y="25"
     inkscape:window-maximized="0"
     showguides="true"
     inkscape:guide-bbox="true"
     inkscape:showpageshadow="2"
     inkscape:deskcolor="#d1d1d1">
    <sodipodi:guide
       position="-71.23249,150.2182"
       orientation="0,-1"
       id="guide1056"
       inkscape:locked="false" />
    <sodipodi:guide
       position="5.6662208,50.249879"
       orientation="0,-1"
       id="guide1058"
       inkscape:locked="false" />
    <sodipodi:guide
       position="50.223473,179.19738"
       orientation="1,0"
       id="guide1060"
       inkscape:locked="false" />
    <sodipodi:guide
       position="150.25183,38.579012"
       orientation="1,0"
       id="guide1062"
       inkscape:locked="false" />
  </sodipodi:namedview>
  <metadata
     id="metadata5">
    <rdf:RDF>
      <cc:Work
         rdf:about="">
        <dc:format>image/svg+xml</dc:format>
        <dc:type
           rdf:resource="http://purl.org/dc/dcmitype/StillImage" />
      </cc:Work>
    </rdf:RDF>
  </metadata>
  <g
     inkscape:label="Fruit"
     inkscape:groupmode="layer"
     id="layer1" />
  <g
     inkscape:groupmode="layer"
     id="layer4"
     inkscape:label="Fruit2"
     style="display:inline">
    <path
       id="path5707"
       style="fill:url(#linearGradient9);fill-opacity:1;fill-rule:nonzero;stroke:#ff5e8d;stroke-width:3;stroke-linecap:round;stroke-linejoin:round;stroke-miterlimit:4;stroke-dasharray:none;stroke-opacity:1;stop-color:#000000"
       d="m 148,100 c 0,26.50967 -21.49033,48 -48,48 C 73.490332,148 52,126.50967 52,100 52,73.490332 80.91984,52 107.42951,52 133.93918,52 148,73.490332 148,100 Z"
       sodipodi:nodetypes="sssss" />
    <path
       style="display:inline;fill:#ff80a5;fill-opacity:1;stroke:#ff5e8d;stroke-width:3;stroke-linecap:round;stroke-linejoin:miter;stroke-miterlimit:4;stroke-dasharray:none;stroke-opacity:1"
       d="M 52.006555,95.989241 C 57.643806,34.062034 101.49035,51.346651 108.47081,63.299406"
       id="path5710"
       sodipodi:nodetypes="cc" />
  </g>
  <g
     inkscape:groupmode="layer"
     id="layer2"
     inkscape:label="Face Normal"
     style="display:inline;mix-blend-mode:normal">
    <path
       id="ellipse8"
       style="display:none;mix-blend-mode:normal;fill:#760022;fill-opacity:1;stroke:none;stroke-width:8.72055;stroke-linecap:round;stroke-linejoin:round;stroke-miterlimit:4;stroke-dasharray:none;stroke-opacity:1"
       inkscape:label="eye-right"
       d="m 122.89844,91.308594 a 7.8144655,6.5764575 0 0 0 -7.81446,6.576172 7.8144655,6.5764575 0 0 0 3.78516,5.623044 12.962935,10.842973 0 0 1 5.17188,-0.91211 12.962935,10.842973 0 0 1 3.67773,0.44727 7.8144655,6.5764575 0 0 0 2.99414,-5.158204 7.8144655,6.5764575 0 0 0 -7.81445,-6.576172 z" />
    <path
       id="path1014-6-6"
       style="display:none;mix-blend-mode:normal;fill:#760022;fill-opacity:1;stroke:none;stroke-width:8.72055;stroke-linecap:round;stroke-linejoin:round;stroke-miterlimit:4;stroke-dasharray:none;stroke-opacity:1"
       inkscape:label="eye-left"
       d="m 78.955078,91.058594 a 7.8144655,6.5764575 0 0 0 -7.814453,6.578125 7.8144655,6.5764575 0 0 0 3.003906,5.162111 12.962935,10.842973 0 0 1 2.365235,-0.20313 12.962935,10.842973 0 0 1 5.578125,1.05664 7.8144655,6.5764575 0 0 0 4.68164,-6.015621 7.8144655,6.5764575 0 0 0 -7.814453,-6.578125 z" />
    <ellipse
       style="display:inline;fill:url(#radialGradient5-4);fill-rule:nonzero;stroke:none;stroke-width:5.90102;stroke-miterlimit:2.8;stroke-dasharray:none;stroke-dashoffset:2.9174;stroke-opacity:1"
       id="path4-1"
       cx="124.04185"
       cy="113.43797"
       rx="12.962935"
       ry="10.842973"
       inkscape:label="check-right" />
    <ellipse
       style="display:inline;fill:url(#radialGradient12);fill-rule:nonzero;stroke:none;stroke-width:5.90102;stroke-miterlimit:2.8;stroke-dasharray:none;stroke-dashoffset:2.9174;stroke-opacity:1"
       id="path4"
       cx="76.509254"
       cy="113.43771"
       rx="12.962935"
       ry="10.842973"
       inkscape:label="check-left" />
    <path
       style="display:inline;fill:#ff326e;fill-opacity:1;fill-rule:nonzero;stroke:#ff326e;stroke-width:2.37153;stroke-miterlimit:2.8;stroke-dasharray:none;stroke-dashoffset:2.9174;stroke-opacity:1"
       id="path5"
       sodipodi:type="arc"
       sodipodi:cx="102.6292"
       sodipodi:cy="103.12659"
       sodipodi:rx="8.3032217"
       sodipodi:ry="7.8206806"
       sodipodi:start="0.21290653"
       sodipodi:end="2.7161517"
       sodipodi:arc-type="slice"
       d="m 110.74495,104.77911 a 8.3032217,7.8206806 0 0 1 -7.23505,6.12404 8.3032217,7.8206806 0 0 1 -8.443742,-4.54879 l 7.563042,-3.22777 z"
       transform="matrix(0.99872303,0.05052038,-0.0281289,0.9996043,0,0)" />
    <path
       style="fill:none;stroke:#965c00;stroke-width:4.47798;stroke-linecap:round;stroke-linejoin:miter;stroke-miterlimit:4;stroke-dasharray:none;stroke-opacity:1"
       d="m 99.695328,53.38751 c -1.780561,-7.653974 5.341712,-9.765414 5.341712,-9.765414 v 0"
       id="path2855" />
    <ellipse
       style="display:none;mix-blend-mode:normal;fill:#cfcfcf;fill-opacity:1;fill-rule:nonzero;stroke:none;stroke-width:8.34073;stroke-miterlimit:2.8;stroke-dashoffset:2.9174"
       id="path2-6-3"
       cx="81.933998"
       cy="94.655678"
       rx="2.3890123"
       ry="1.7830819" />
    <ellipse
       style="display:none;mix-blend-mode:normal;fill:#cfcfcf;fill-opacity:1;fill-rule:nonzero;stroke:none;stroke-width:8.34073;stroke-miterlimit:2.8;stroke-dashoffset:2.9174"
       id="path2-6-3-8"
       cx="125.7808"
       cy="94.940369"
       rx="2.3890123"
       ry="1.7830819" />
  </g>
  <g
     inkscape:groupmode="layer"
     id="layer3"
     inkscape:label="Face Danger"
     style="display:inline;mix-blend-mode:normal">
    <path
       sodipodi:type="spiral"
       style="display:none;mix-blend-mode:normal;fill:none;fill-rule:evenodd;stroke:#a50030;stroke-width:1.7;stroke-dasharray:none;stroke-opacity:1"
       id="path1"
       sodipodi:cx="27.853933"
       sodipodi:cy="64.022476"
       sodipodi:expansion="1"
       sodipodi:revolution="2.1749229"
       sodipodi:radius="7.0248103"
       sodipodi:argument="-17.675201"
       sodipodi:t0="0"
       d="m 27.853933,64.022476 c 0.187597,0.448148 -0.51154,0.473977 -0.74485,0.311799 -0.632257,-0.439495 -0.378944,-1.376232 0.121253,-1.8015 0.894736,-0.760706 2.237225,-0.342581 2.858149,0.554306 0.911231,1.316217 0.31008,3.111684 -0.987358,3.914798 -1.729281,1.070425 -3.991157,0.279521 -4.971447,-1.420411 -1.233596,-2.13919 -0.250028,-4.873076 1.853463,-6.028096 2.547608,-1.398884 5.756385,-0.221161 7.084745,2.286515 1.565427,2.95521 0.192691,6.640563 -2.719567,8.141395 -2.243374,1.156122 -5.006015,0.879494 -7.034017,-0.597862"
       transform="matrix(1.3106948,0,0,1.0932085,41.270457,27.040056)" />
    <path
       sodipodi:type="spiral"
       style="display:none;mix-blend-mode:normal;fill:none;fill-rule:evenodd;stroke:#a50030;stroke-width:1.7;stroke-dasharray:none;stroke-opacity:1"
       id="path1-3"
       sodipodi:cx="27.853933"
       sodipodi:cy="64.022476"
       sodipodi:expansion="1"
       sodipodi:revolution="2.1749229"
       sodipodi:radius="7.0248103"
       sodipodi:argument="-17.675201"
       sodipodi:t0="0"
       d="m 27.853933,64.022476 c 0.187597,0.448148 -0.51154,0.473977 -0.74485,0.311799 -0.632257,-0.439495 -0.378944,-1.376232 0.121253,-1.8015 0.894736,-0.760706 2.237225,-0.342581 2.858149,0.554306 0.911231,1.316217 0.31008,3.111684 -0.987358,3.914798 -1.729281,1.070425 -3.991157,0.279521 -4.971447,-1.420411 -1.233596,-2.13919 -0.250028,-4.873076 1.853463,-6.028096 2.547608,-1.398884 5.756385,-0.221161 7.084745,2.286515 1.565427,2.95521 0.192691,6.640563 -2.719567,8.141395 -2.243374,1.156122 -5.006015,0.879494 -7.034017,-0.597862"
       transform="matrix(-1.3106948,0,0,1.0932085,160.42528,27.785089)" />
    <path
       style="display:none;mix-blend-mode:normal;fill:#ff326e;fill-opacity:1;fill-rule:nonzero;stroke:none;stroke-width:2.37153;stroke-linecap:butt;stroke-linejoin:bevel;stroke-miterlimit:2.8;stroke-dasharray:none;stroke-dashoffset:2.9174;stroke-opacity:1"
       id="path5-9"
       sodipodi:type="arc"
       sodipodi:cx="92.686401"
       sodipodi:cy="-124.23026"
       sodipodi:rx="8.3032217"
       sodipodi:ry="7.8206806"
       sodipodi:start="0.21290653"
       sodipodi:end="2.7161517"
       sodipodi:arc-type="arc"
       d="m 100.80214,-122.57774 a 8.3032217,7.8206806 0 0 1 -7.235038,6.12404 8.3032217,7.8206806 0 0 1 -8.443747,-4.54879"
       transform="matrix(0.9967645,-0.08037742,-0.05802233,-0.99831529,0,0)"
       sodipodi:open="true" />
  </g>
  <g
     inkscape:groupmode="layer"
     id="layer5"
     inkscape:label="Face Blink">
    <path
       style="opacity:1;fill:none;fill-opacity:1;stroke:#ab0033;stroke-width:2.421;stroke-linecap:butt;stroke-linejoin:bevel;stroke-miterlimit:2.8;stroke-dasharray:none;stroke-dashoffset:2.9174;stroke-opacity:0.73359072"
       id="path8"
       sodipodi:type="arc"
       sodipodi:cx="123.05618"
       sodipodi:cy="102.0618"
       sodipodi:rx="6.6516857"
       sodipodi:ry="6.2359552"
       sodipodi:start="3.3605501"
       sodipodi:end="6.0074233"
       sodipodi:arc-type="arc"
       d="m 116.56331,100.70727 a 6.6516857,6.2359552 0 0 1 6.30398,-4.878912 6.6516857,6.2359552 0 0 1 6.58926,4.535512"
       sodipodi:open="true" />
    <path
       style="fill:none;fill-opacity:1;stroke:#ab0033;stroke-width:2.421;stroke-linecap:butt;stroke-linejoin:bevel;stroke-miterlimit:2.8;stroke-dasharray:none;stroke-dashoffset:2.9174;stroke-opacity:0.73359072"
       id="path8-9"
       sodipodi:type="arc"
       sodipodi:cx="79.035812"
       sodipodi:cy="102.09816"
       sodipodi:rx="6.6516857"
       sodipodi:ry="6.2359552"
       sodipodi:start="3.3605501"
       sodipodi:end="6.0074233"
       sodipodi:arc-type="arc"
       d="m 72.542939,100.74363 a 6.6516857,6.2359552 0 0 1 6.303976,-4.87891 6.6516857,6.2359552 0 0 1 6.589269,4.53551"
       sodipodi:open="true" />
  </g>
</svg>
