<?xml version="1.0" encoding="UTF-8"?>
<svg width="200" height="200" version="1.1" viewBox="0 0 200 200" xmlns="http://www.w3.org/2000/svg" xmlns:cc="http://creativecommons.org/ns#" xmlns:dc="http://purl.org/dc/elements/1.1/" xmlns:rdf="http://www.w3.org/1999/02/22-rdf-syntax-ns#">
 <metadata>
  <rdf:RDF>
   <cc:Work rdf:about="">
    <dc:format>image/svg+xml</dc:format>
    <dc:type rdf:resource="http://purl.org/dc/dcmitype/StillImage"/>
    <dc:title/>
   </cc:Work>
  </rdf:RDF>
 </metadata>
 <g stroke-linecap="round" style="mix-blend-mode:normal">
  <path d="m100.24 44.848c-11.284 0.8009-17.2 2.046-26.362 15.07-14.25 11.443-21.875 22.943-21.875 40.048 4e-6 26.354 21.49 47.719 48 47.719 26.51-7e-5 48-21.365 48-47.719-1.2e-4 -16.424-8.0437-26.493-18.869-37.935-8.2691-8.5057-12.055-17.375-28.894-17.184z" fill="#cfd632" stop-color="#000000" stroke="#99aa0f" stroke-linejoin="round" stroke-width="3.9987"/>
  <path d="m99.797 48.798c0-7.6348-3.9038-11.524-6.7307-12.245" fill="none" stroke="#6d5b02" stroke-width="4"/>
 </g>
 <g display="none" fill="#000000" style="mix-blend-mode:normal">
  <circle cx="120.64" cy="102.1" r="6.5765"/>
  <circle cx="77.24" cy="101.85" r="6.5765" display="inline" style="mix-blend-mode:normal"/>
 </g>
 <g fill="none" stroke="#000000" stroke-linecap="round" stroke-width="8" style="mix-blend-mode:normal">
  <path d="m72.932 101.6 10.763 4.2609"/>
  <path d="m127 101.5-10.763 4.2609"/>
 </g>
</svg>
