<?xml version="1.0" encoding="UTF-8"?>
<svg width="200" height="200" version="1.1" viewBox="0 0 200 200" xmlns="http://www.w3.org/2000/svg" xmlns:cc="http://creativecommons.org/ns#" xmlns:dc="http://purl.org/dc/elements/1.1/" xmlns:rdf="http://www.w3.org/1999/02/22-rdf-syntax-ns#">
 <metadata>
  <rdf:RDF>
   <cc:Work rdf:about="">
    <dc:format>image/svg+xml</dc:format>
    <dc:type rdf:resource="http://purl.org/dc/dcmitype/StillImage"/>
    <dc:title/>
   </cc:Work>
  </rdf:RDF>
 </metadata>
 <g>
  <path d="m98.875 52.564c-11.546 1.134-16.47-11.783-16.47-11.783s9.6042 2.3606 10.752 0.66573c0.79571-1.1753-1.1144-11.396-1.1144-11.396s6.313 8.1286 9.9395 10.573c2.3381 1.5761 10.115-4.6354 10.115-4.6354s-2.4863 4.2709-2.8442 4.9144c-1.3439 2.4167 6.4819 3.1439 6.4819 3.1439s-5.3135 7.3832-16.859 8.5173z" fill="#51cf33" stroke="#2e9300" stroke-width="2"/>
  <circle cx="100" cy="100" r="48.5" fill="#e3cd39" stop-color="#000000" stroke="#a58d31" stroke-linecap="round" stroke-linejoin="round" stroke-width="3"/>
 </g>
 <g fill="#000000" style="mix-blend-mode:normal">
  <circle cx="120.64" cy="102.1" r="6.5765"/>
  <circle cx="77.24" cy="101.85" r="6.5765" style="mix-blend-mode:normal"/>
 </g>
 <g display="none" fill="none" stroke="#000000" stroke-linecap="round" stroke-width="8" style="mix-blend-mode:normal">
  <path d="m72.932 101.6 10.763 4.2609"/>
  <path d="m127 101.5-10.763 4.2609"/>
 </g>
</svg>
