<?xml version="1.0" encoding="UTF-8"?>
<svg width="200" height="200" version="1.1" viewBox="0 0 200 200" xmlns="http://www.w3.org/2000/svg" xmlns:cc="http://creativecommons.org/ns#" xmlns:dc="http://purl.org/dc/elements/1.1/" xmlns:rdf="http://www.w3.org/1999/02/22-rdf-syntax-ns#">
 <metadata>
  <rdf:RDF>
   <cc:Work rdf:about="">
    <dc:format>image/svg+xml</dc:format>
    <dc:type rdf:resource="http://purl.org/dc/dcmitype/StillImage"/>
    <dc:title/>
   </cc:Work>
  </rdf:RDF>
 </metadata>
 <path d="m102.29 58.083c16.392-0.20236 42.321 6.1017 43.866 21.961 1.6482 16.923-20.462 66.32-44.746 66.32-24.284 0-48.206-38.813-46.695-64.279 1.2422-20.939 31.184-23.799 47.575-24.001z" fill="#ed422f" stroke="#c91c1c" stroke-width="8"/>
 <path d="m98.988 51.545c-18.029-0.0053-27.87 11.257-23.691 14.325 2.6242 1.9262 14.497-3.5292 16.529-1.8365 1.4085 1.1737-6.2732 10.512 0 12.305 10.047 2.8705 8.5346-6.3724 13.774-9.3662 3.3778-1.9302 11.174 5.0548 16.345 0.91825 1.0737-0.85895-4.4914-4.3077-5.1422-4.9586-2.4441-2.4441 10.954-0.88177 9.5498-4.0403-1.3984-3.1464-9.3348-7.3407-27.364-7.346z" fill="#51cf33" stroke="#2e9300" stroke-width="5"/>
 <g fill="#000000" style="mix-blend-mode:normal">
  <circle cx="78.341" cy="107.58" r="7.5175" stop-color="#000000" style="font-variation-settings:normal"/>
  <circle cx="122.34" cy="107.58" r="7.5175"/>
 </g>
 <g display="none" fill="none" stroke="#000000" stroke-linecap="round" stroke-width="8" style="mix-blend-mode:normal">
  <path d="m70.932 109.03 11.813 4.8327"/>
  <path d="m130.28 108.91-11.813 4.8327"/>
 </g>
</svg>
